<?xml version="1.0" encoding="UTF-8"?>
<svg id="LOGOTIPO" xmlns="http://www.w3.org/2000/svg" viewBox="0 0 821.73 214.27">
  <defs>
    <style>
      .cls-1 {
        fill: #a5a5a5;
      }

      .cls-2 {
        fill: #4fc17e;
      }
    </style>
  </defs>
  <path class="cls-1" d="M28.51,193.8c-3.25,3.97-7.19,5.95-11.82,5.95s-8.58-1.98-11.82-5.95c-3.25-3.96-4.87-8.78-4.87-14.45V34.91c0-5.66,1.62-10.47,4.87-14.44,3.24-3.96,7.18-5.95,11.82-5.95s8.57,1.98,11.82,5.95c3.24,3.97,4.87,8.78,4.87,14.44v144.45c0,5.67-1.62,10.48-4.87,14.45Z"/>
  <path class="cls-1" d="M54.56,107.13c0-10.76,1.45-21.59,4.35-32.5,2.89-10.9,7.13-20.82,12.69-29.74,5.56-8.92,12.28-16.21,20.16-21.88,7.88-5.66,16.8-8.5,26.77-8.5h176.02c4.63,0,8.57,1.98,11.82,5.95,3.24,3.97,4.87,8.78,4.87,14.44s-1.62,10.48-4.87,14.45c-3.25,3.97-7.19,5.95-11.82,5.95H125.83c-8.12,0-14.66,1.77-19.64,5.31-4.99,3.55-8.92,7.86-11.82,12.96-2.9,5.1-4.87,10.69-5.91,16.78-1.04,6.09-1.56,11.68-1.56,16.78s.52,10.69,1.56,16.78c1.04,6.09,3.01,11.68,5.91,16.78,2.89,5.1,6.83,9.42,11.82,12.96,4.98,3.55,11.53,5.31,19.64,5.31h168.72c4.63,0,8.57,1.98,11.82,5.95,3.24,3.97,4.87,8.78,4.87,14.45s-1.62,10.48-4.87,14.45c-3.25,3.97-7.19,5.95-11.82,5.95H115.05c-9.5,0-17.96-2.83-25.38-8.5-7.42-5.66-13.73-12.96-18.95-21.88-5.21-8.92-9.21-18.91-11.99-29.95-2.78-11.05-4.17-21.81-4.17-32.29Z"/>
  <path class="cls-1" d="M793.22,20.46c3.24-3.96,7.18-5.95,11.82-5.95s8.57,1.98,11.82,5.95c3.24,3.97,4.87,8.78,4.87,14.44v123.63c0,11.62-3.19,21.39-9.56,29.31-6.38,7.93-14.31,11.9-23.81,11.9-3.25,0-6.43-.56-9.56-1.7-3.13-1.13-5.97-2.69-8.52-4.67l-159.23-118.96c-4.41-3.11-8.06-5.59-10.95-7.43-2.9-1.84-5.27-2.76-7.13-2.76-3.48,0-5.68,2.69-6.61,8.07-.93,5.38-1.39,13.17-1.39,23.37v83.69c0,5.67-1.62,10.48-4.87,14.45-3.25,3.97-7.19,5.95-11.82,5.95s-8.58-1.98-11.82-5.95c-3.25-3.96-4.87-8.78-4.87-14.45V55.73c0-11.61,3.18-21.38,9.56-29.31,6.37-7.93,14.31-11.89,23.81-11.89,3.24,0,6.43.57,9.56,1.7,3.13,1.13,5.97,2.69,8.52,4.67l159.23,118.95c4.4,3.12,8.05,5.6,10.95,7.44,2.89,1.84,5.27,2.76,7.13,2.76,3.48,0,5.68-2.69,6.61-8.07.92-5.38,1.39-13.17,1.39-23.37V34.91c0-5.66,1.62-10.47,4.87-14.44Z"/>
  <g>
    <path class="cls-2" d="M514.22,51.39c-10.61-16.56-25.55-29.82-43.23-38.35-3.32-1.6-7.3-.21-8.9,3.1-1.6,3.32-.21,7.3,3.1,8.9,15.45,7.46,28.52,19.06,37.8,33.54,9.52,14.86,14.55,32.1,14.55,49.83,0,24.71-9.62,47.95-27.1,65.42-17.48,17.48-40.71,27.1-65.42,27.1s-47.95-9.62-65.42-27.1c-17.48-17.48-27.1-40.71-27.1-65.42,0-17.74,5.03-34.97,14.55-49.83,7.01-10.94,16.19-20.24,26.92-27.35.46,6.3,2.45,12.14,4.5,16.65,2.16,4.75,4.8,9.13,7.35,13.36,1.98,3.29,3.85,6.39,5.48,9.6,7.86,15.5,10.55,31.1,8,46.39-2.03,12.16-7.42,24.52-16.05,36.84-7.8-12.5-11.43-20.94-13.17-30.11-2.25-11.85-1.41-25.77,1.07-48.93.39-3.66-2.26-6.95-5.92-7.34-3.66-.4-6.94,2.26-7.34,5.92-5.06,47.33-3.96,60.77,19.28,95.6,1.2,1.8,3.21,2.93,5.37,3.02.1,0,.2,0,.3,0,2.05,0,4.02-.94,5.31-2.54,27.78-34.49,32.84-69.79,15.02-104.9-1.85-3.64-3.93-7.1-5.94-10.45-2.46-4.09-4.79-7.96-6.64-12.01-4.46-9.79-3.73-16.38-2.33-20.18.41-1.11.5-2.25.33-3.33-.03-.91-.24-1.83-.66-2.7-1.6-3.32-5.59-4.71-8.9-3.1-17.67,8.53-32.62,21.79-43.22,38.35-10.9,17.01-16.66,36.73-16.66,57.02,0,28.27,11.01,54.86,31,74.85,19.99,19.99,46.58,31,74.85,31s54.86-11.01,74.85-31c19.99-19.99,31-46.58,31-74.85,0-20.29-5.76-40.01-16.66-57.03Z"/>
    <path class="cls-2" d="M425.02,42.25c3.68,0,6.67-2.98,6.67-6.67V6.67c0-3.68-2.98-6.67-6.67-6.67s-6.67,2.98-6.67,6.67v28.92c0,3.68,2.98,6.67,6.67,6.67Z"/>
  </g>
</svg>